<svg aria-hidden="true" style="position:absolute;width:0;height:0;overflow:hidden" xmlns="http://www.w3.org/2000/svg">
  <defs>
    <symbol id="icon-chevron-down" viewBox="0 0 30 32">
      <path stroke-linejoin="round" stroke-linecap="round" stroke-width="2.824" d="m7.529 12.235 7.529 7.529 7.529-7.529"/>
    </symbol>
    <symbol id="icon-chevron-up" viewBox="0 0 30 32">
<path d="M23 14c-0.278 0-0.555-0.116-0.753-0.341l-6.247-7.14-6.247 7.14c-0.364 0.416-0.995 0.458-1.411 0.094s-0.458-0.995-0.094-1.411l7-8c0.19-0.217 0.464-0.341 0.753-0.341s0.563 0.125 0.753 0.341l7 8c0.364 0.416 0.322 1.047-0.094 1.411-0.19 0.166-0.424 0.247-0.658 0.247z"></path>
</symbol>
    <symbol id="icon-x-close" viewBox="0 0 32 32">
      <path stroke-linejoin="round" stroke-linecap="round" stroke-width="2.667" d="M24 8 8 24M8 8l16 16"/>
    </symbol>
    <symbol id="icon-arrow-circle-broken-right" viewBox="0 0 32 32">
      <path stroke-linejoin="round" stroke-linecap="round" stroke-width="2.6" d="M4.45 9.333A13.328 13.328 0 0 1 16 2.666c7.364 0 13.333 5.97 13.333 13.333S23.363 29.332 16 29.332a13.329 13.329 0 0 1-11.55-6.667"/>
      <path stroke-linejoin="round" stroke-linecap="round" stroke-width="2.6" d="M16 21.333 21.333 16 16 10.667M2.667 16h18.667"/>
    </symbol>
    <symbol id="icon-bell" viewBox="0 0 32 32">
      <path stroke-linejoin="round" stroke-linecap="round" stroke-width="3" d="M12.472 28c.94.83 2.175 1.333 3.528 1.333s2.588-.504 3.528-1.333M24 10.667a8 8 0 1 0-16 0c0 4.12-1.039 6.941-2.2 8.807-.979 1.574-1.469 2.361-1.451 2.58.02.243.071.336.267.481.177.131.974.131 2.569.131h17.63c1.595 0 2.392 0 2.569-.131.196-.145.247-.238.267-.481.018-.22-.472-1.006-1.451-2.58-1.161-1.866-2.2-4.687-2.2-8.807z"/>
    </symbol>
    <symbol id="icon-colors" viewBox="0 0 32 32">
      <path stroke-linejoin="round" stroke-linecap="round" stroke-width="2.667" d="M16 27.296a8 8 0 1 0 7.44-13.683m-14.88.001a8 8 0 1 0 9.546 4.773M24 10.667a8 8 0 1 1-16 0 8 8 0 0 1 16 0z"/>
    </symbol>
    <symbol id="icon-container" viewBox="0 0 28 32">
      <path stroke-linejoin="round" stroke-linecap="round" stroke-width="2.667" d="M25.556 9.704 14.223 16m-.001 0L2.889 9.704M14.222 16v12.667m12-7.256V10.588c0-.457 0-.685-.067-.889a1.343 1.343 0 0 0-.285-.485c-.145-.158-.345-.269-.744-.491l-9.867-5.481c-.378-.21-.567-.315-.767-.356a1.349 1.349 0 0 0-.537 0c-.2.041-.389.146-.767.356L3.321 8.723c-.399.222-.599.333-.744.491a1.34 1.34 0 0 0-.286.485c-.067.204-.067.432-.067.889v10.823c0 .457 0 .685.067.889.06.18.157.346.286.485.145.158.345.269.744.491l9.867 5.482c.378.21.567.315.767.356.177.036.36.036.537 0 .2-.041.389-.146.767-.356l9.867-5.482c.399-.222.599-.333.744-.491.129-.14.226-.305.285-.485.067-.204.067-.432.067-.889z"/>
    </symbol>
    <symbol id="icon-filter" viewBox="0 0 32 32">
      <path stroke-linejoin="round" stroke-linecap="round" stroke-width="3" d="M29.334 4H2.667l10.667 12.613v8.72L18.667 28V16.613L29.334 4z"/>
    </symbol>
    <symbol id="icon-hex" viewBox="0 0 28 32">
      <path stroke-linejoin="round" stroke-linecap="round" stroke-width="2.667" d="M13.186 3.242c.378-.21.567-.315.767-.356.177-.036.36-.036.537 0 .2.041.389.146.767.356l9.867 5.482c.399.222.599.333.744.491.129.14.226.305.285.485.067.204.067.432.067.889v10.823c0 .457 0 .685-.067.889-.06.18-.157.346-.285.485-.145.158-.345.269-.744.491l-9.867 5.482c-.378.21-.567.315-.767.356-.177.036-.36.036-.537 0-.2-.041-.389-.146-.767-.356l-9.867-5.482c-.399-.222-.599-.333-.744-.491a1.34 1.34 0 0 1-.286-.485c-.067-.204-.067-.432-.067-.889V10.589c0-.457 0-.685.067-.889.06-.18.157-.346.286-.485.145-.158.345-.269.744-.491l9.867-5.481z"/>
    </symbol>
    <symbol id="icon-lightning" viewBox="0 0 27 32">
      <path stroke-linejoin="round" stroke-linecap="round" stroke-width="2.667" d="M17.222 2.667H9.548c-.239 0-.359 0-.465.036a.672.672 0 0 0-.249.154c-.08.078-.133.185-.24.399l-5.6 11.2c-.256.511-.383.767-.353.974a.669.669 0 0 0 .277.449c.172.12.458.12 1.029.12h8.274l-4 13.333 16.258-16.86c.548-.569.823-.853.839-1.097a.665.665 0 0 0-.235-.553c-.186-.157-.581-.157-1.372-.157h-9.49l3-8z"/>
    </symbol>
    <symbol id="icon-loading" viewBox="0 0 32 32">
      <path stroke-linejoin="round" stroke-linecap="round" stroke-width="2.667" d="M4.454 22.666a6.364 6.364 0 0 1 1.944-8.453l.003-.003a6.37 6.37 0 0 1 7.312.126l4.576 3.327a6.37 6.37 0 0 0 7.312.126l.003-.003a6.36 6.36 0 0 0 1.943-8.453m-4.878 18.213a6.365 6.365 0 0 1-8.453-1.944l-.003-.003a6.37 6.37 0 0 1 .126-7.312l3.327-4.576a6.37 6.37 0 0 0 .126-7.312l-.006-.003a6.363 6.363 0 0 0-8.453-1.942m16.094 2.118c5.207 5.207 5.207 13.648 0 18.855s-13.648 5.207-18.855 0c-5.207-5.207-5.207-13.648 0-18.855s13.648-5.207 18.855 0z"/>
    </symbol>
    <symbol id="icon-pazzle" viewBox="0 0 32 32">
      <path stroke-linejoin="round" stroke-linecap="round" stroke-width="2.667" d="m16 2.667 4.8 4.8C24-.933 32.933 8 24.533 11.2l4.8 4.8-4.8 4.8c-3.2-8.4-12.133.533-3.733 3.733l-4.8 4.8-4.8-4.8C8 32.933-.933 24 7.467 20.8l-4.8-4.8 4.8-4.8c3.2 8.4 12.133-.533 3.733-3.733l4.8-4.8z"/>
    </symbol>
    <symbol id="icon-pencil" viewBox="0 0 32 32">
      <path stroke-linejoin="round" stroke-linecap="round" stroke-width="2.773" d="m1.422 30.578 7.892-3.036c.505-.194.757-.291.993-.418.21-.113.41-.243.598-.389.212-.164.403-.355.785-.738L27.732 9.955a4.023 4.023 0 1 0-5.689-5.689L6.001 20.308c-.382.382-.574.574-.738.785a4.19 4.19 0 0 0-.388.598c-.127.236-.224.489-.418.994l-3.035 7.892zm0 0 2.927-7.61c.209-.545.314-.817.494-.942a.71.71 0 0 1 .539-.114c.215.041.421.247.834.66l3.213 3.213c.413.413.619.619.66.834a.71.71 0 0 1-.114.539c-.125.18-.397.284-.942.494l-7.61 2.927z"/>
    </symbol>
    <symbol id="icon-Project" viewBox="0 0 32 32">
      <path stroke-width="2.667" d="M4.396 6.978a3.465 3.465 0 0 1 2.582-2.582 7.408 7.408 0 0 1 3.377 0 3.465 3.465 0 0 1 2.582 2.582c.26 1.11.26 2.266 0 3.377a3.465 3.465 0 0 1-2.582 2.582c-1.11.26-2.266.26-3.377 0a3.465 3.465 0 0 1-2.582-2.582 7.408 7.408 0 0 1 0-3.377zM4.396 21.645a3.465 3.465 0 0 1 2.582-2.582 7.38 7.38 0 0 1 3.377 0 3.464 3.464 0 0 1 2.582 2.582 7.408 7.408 0 0 1 0 3.377 3.465 3.465 0 0 1-2.582 2.582 7.38 7.38 0 0 1-3.377 0 3.464 3.464 0 0 1-2.582-2.582 7.408 7.408 0 0 1 0-3.377zM19.063 6.978a3.464 3.464 0 0 1 2.582-2.582 7.408 7.408 0 0 1 3.377 0 3.465 3.465 0 0 1 2.582 2.582 7.38 7.38 0 0 1 0 3.377 3.464 3.464 0 0 1-2.582 2.582 7.408 7.408 0 0 1-3.377 0 3.465 3.465 0 0 1-2.582-2.582 7.38 7.38 0 0 1 0-3.377zM19.063 21.645a3.464 3.464 0 0 1 2.582-2.582 7.38 7.38 0 0 1 3.377 0 3.464 3.464 0 0 1 2.582 2.582 7.38 7.38 0 0 1 0 3.377 3.464 3.464 0 0 1-2.582 2.582 7.38 7.38 0 0 1-3.377 0 3.464 3.464 0 0 1-2.582-2.582 7.38 7.38 0 0 1 0-3.377z"/>
    </symbol>
    <symbol id="icon-star" viewBox="0 0 32 32">
      <path stroke-linejoin="round" stroke-linecap="round" stroke-width="2.667" d="m16 2.667 2.683 6.975c.376.978.564 1.466.856 1.878.259.364.577.683.942.942.411.292.9.48 1.878.856l6.975 2.683-6.975 2.683c-.978.376-1.466.564-1.878.856a3.993 3.993 0 0 0-.942.942c-.292.411-.48.9-.856 1.878L16 29.335l-2.683-6.975c-.376-.978-.564-1.466-.856-1.878a4.012 4.012 0 0 0-.942-.942c-.411-.292-.9-.48-1.878-.856l-6.975-2.683 6.975-2.683c.978-.376 1.466-.564 1.878-.856.364-.259.683-.578.942-.942.292-.411.48-.9.856-1.878L16 2.667z"/>
    </symbol>
    <symbol id="icon-trash-04" viewBox="0 0 32 32">
      <path stroke-linejoin="round" stroke-linecap="round" stroke-width="2.6" d="M12 4h8M4 8h24M6.667 8l.801 12.018c.149 2.231.223 3.347.588 4.243a6 6 0 0 0 3.672 3.435c.919.304 2.037.304 4.273.304v0c2.236 0 3.354 0 4.273-.304a6 6 0 0 0 3.672-3.435c.365-.896.439-2.012.588-4.243L25.335 8"/>
    </symbol>
    <symbol id="icon-task" viewBox="0 0 32 32">
      <path fill="#161616" style="fill: var(--color1, #161616)" d="M26.674 0h-21.34c-2.946 0-5.335 2.389-5.335 5.335v0 21.34c0 2.946 2.389 5.335 5.335 5.335v0h21.34c2.946 0 5.335-2.389 5.335-5.335v0-21.34c0-2.946-2.389-5.335-5.335-5.335v0z"></path>
      <path fill="#fff" style="fill: var(--color2, #fff)" d="M13.335 23.033c0.245-1.272 0.453-2.611 0.747-3.95 0.145-0.7-0.031-1-0.815-0.946s-1.657 0.027-2.49 0c-0.834-0.027-0.983-0.446-0.503-1.044 2.363-2.919 4.755-5.802 7.136-8.676 0.267-0.326 0.575-0.558 1.014-0.312 0.44 0.245 0.349 0.549 0.277 0.915-0.263 1.338-0.48 2.677-0.77 3.99-0.149 0.678 0.045 0.919 0.752 0.892 0.318-0.017 0.69-0.027 1.064-0.027s0.746 0.010 1.116 0.029l-0.052-0.002c0.403 0 0.933-0.209 1.141 0.339s-0.231 0.781-0.453 1.107c-1.327 1.642-2.228 2.729-3.136 3.811l0.383-0.468c0.598-0.771-0.727 0.809-2.049 2.391l-2.003 2.465c-0.263 0.317-0.557 0.572-1.005 0.411s-0.353-0.54-0.353-0.924z"></path>
    </symbol>
    <symbol id="icon-plus" viewBox="0 0 24 24">
       <path d="M5 13h6v6c0 0.552 0.448 1 1 1s1-0.448 1-1v-6h6c0.552 0 1-0.448 1-1s-0.448-1-1-1h-6v-6c0-0.552-0.448-1-1-1s-1 0.448-1 1v6h-6c-0.552 0-1 0.448-1 1s0.448 1 1 1z"></path>
    </symbol>

    <symbol id="icon-Group-1456q" viewBox="0 0 37 32">
       <path d="M26.445 7.556c0 4.173-3.383 7.556-7.556 7.556s-7.556-3.383-7.556-7.556c0-4.173 3.383-7.556 7.556-7.556s7.556 3.383 7.556 7.556z"></path>
       <path d="M37.169 33.208c0-2.441-0.481-4.857-1.415-7.112s-2.303-4.303-4.029-6.029c-1.726-1.726-3.774-3.095-6.029-4.029s-4.671-1.415-7.112-1.415c-2.44 0-4.857 0.481-7.112 1.415s-4.303 2.303-6.029 4.029c-1.726 1.726-3.095 3.774-4.029 6.029s-1.415 4.671-1.415 7.112h37.169z"></path>
   </symbol>
    <symbol id="icon-question" viewBox="0 0 32 32">
       <path fill="var( --sidebar-color)" d="M14 22h4v4h-4zM22 8c1.105 0 2 0.895 2 2v6l-6 4h-4v-2l6-4v-2h-10v-4h12zM16 3c-3.472 0-6.737 1.352-9.192 3.808s-3.808 5.72-3.808 9.192c0 3.472 1.352 6.737 3.808 9.192s5.72 3.808 9.192 3.808c3.472 0 6.737-1.352 9.192-3.808s3.808-5.72 3.808-9.192c0-3.472-1.352-6.737-3.808-9.192s-5.72-3.808-9.192-3.808zM16 0v0c8.837 0 16 7.163 16 16s-7.163 16-16 16c-8.837 0-16-7.163-16-16s7.163-16 16-16z"></path>
   </symbol>

  <symbol id="icon-eye" viewBox="0 0 32 32">
    <path d="M32 16s-6-11-16-11-16 11-16 11 6 11 16 11 16-11 16-11zM2.346 16c1.016-1.532 2.109-2.869 3.321-4.087l-0.001 0.001c2.574-2.578 6.094-4.914 10.334-4.914s7.758 2.336 10.336 4.914c1.211 1.217 2.304 2.554 3.26 3.99l0.060 0.096c-0.116 0.174-0.244 0.366-0.39 0.576-0.67 0.96-1.66 2.24-2.93 3.51-2.578 2.578-6.098 4.914-10.336 4.914-4.24 0-7.758-2.336-10.336-4.914-1.211-1.217-2.304-2.554-3.26-3.99l-0.060-0.096z"></path>
    <path d="M16 11c-2.761 0-5 2.239-5 5s2.239 5 5 5v0c2.761 0 5-2.239 5-5s-2.239-5-5-5v0zM9 16c0-3.866 3.134-7 7-7s7 3.134 7 7v0c0 3.866-3.134 7-7 7s-7-3.134-7-7v0z"></path>
</symbol>

<symbol id="login-icon" viewBox="0 0 32 32">
    <path fill="none"  stroke-linejoin="round" stroke-linecap="round" stroke-miterlimit="4" stroke-width="1.5" d="M11.867 10.080c0.413-4.8 2.88-6.76 8.28-6.76h0.173c5.96 0 8.347 2.387 8.347 8.347v8.693c0 5.96-2.387 8.347-8.347 8.347h-0.173c-5.36 0-7.827-1.934-8.267-6.654M2.667 16h17.173"></path>
    <path fill="none" stroke-linejoin="round" stroke-linecap="round" stroke-miterlimit="4" stroke-width="1.5" d="M16.867 11.533l4.466 4.467-4.466 4.467"></path>
</symbol>

<symbol id="icon-menu" viewBox="0 0 32 32">
  <path fill="none"  stroke-linejoin="round" stroke-linecap="round" stroke-miterlimit="4" stroke-width="2.5" d="M4 16h24M4 8h24M4 24h24"></path>
</symbol>
<symbol id="icon-cancel-close" viewBox="0 0 32 32">
  <path d="M16 0c-8.837 0-16 7.163-16 16s7.163 16 16 16c8.837 0 16-7.163 16-16v0c-0.010-8.833-7.167-15.99-15.999-16h-0.001zM16 30.5c-8.008 0-14.5-6.492-14.5-14.5s6.492-14.5 14.5-14.5c8.008 0 14.5 6.492 14.5 14.5v0c-0.010 8.004-6.496 14.49-14.499 14.5h-0.001z"></path>
  <path d="M23.030 8.947c-0.136-0.136-0.323-0.219-0.53-0.219s-0.394 0.084-0.53 0.219v0l-5.97 5.99-5.968-6c-0.136-0.136-0.324-0.22-0.531-0.22-0.415 0-0.751 0.336-0.751 0.751 0 0.207 0.084 0.395 0.22 0.531v0l5.97 6-5.97 6c-0.135 0.136-0.219 0.323-0.219 0.53 0 0.414 0.336 0.75 0.75 0.75 0.208 0 0.395-0.084 0.531-0.22v0l5.968-5.997 5.97 6c0.136 0.136 0.324 0.22 0.531 0.22 0.415 0 0.751-0.336 0.751-0.751 0-0.207-0.084-0.395-0.22-0.531v0l-5.973-6 5.973-6c0.133-0.135 0.214-0.321 0.214-0.525 0-0.206-0.083-0.392-0.217-0.528l0 0z"></path>
</symbol>
<symbol id="icon-checkedmark_114531" viewBox="0 0 32 32">
  <path d="M12.976 22.166l-4.682-4.682c-0.295-0.295-0.295-0.773 0-1.067s0.773-0.295 1.068 0l3.615 3.614 9.663-9.663c0.295-0.295 0.773-0.295 1.068 0s0.295 0.773 0 1.068l-10.73 10.73z"></path>
  <path d="M16.002 32v-0.755l-0.001 0.755c-8.822 0-16-7.177-16.001-16s7.178-16 16-16c8.823 0 16 7.178 16 16s-7.177 16-15.998 16zM16 1.51c-7.99 0-14.49 6.5-14.49 14.49s6.501 14.49 14.491 14.49h0.001c7.989 0 14.489-6.5 14.489-14.49s-6.5-14.49-14.49-14.49z"></path>
</symbol>

<!-- <symbol id="logo-icon" viewBox="0 0 32 32">
<path  d="M26.667 0h-21.333c-2.946 0-5.333 2.388-5.333 5.333v0 21.333c0 2.946 2.388 5.333 5.333 5.333v0h21.333c2.946 0 5.333-2.388 5.333-5.333v0-21.333c0-2.946-2.388-5.333-5.333-5.333v0z"></path>
<path  d="M13.331 23.027c0.245-1.271 0.453-2.61 0.747-3.949 0.145-0.7-0.031-0.999-0.815-0.946s-1.657 0.027-2.489 0c-0.833-0.027-0.983-0.446-0.503-1.044 2.363-2.918 4.753-5.8 7.134-8.673 0.267-0.326 0.575-0.557 1.013-0.312 0.44 0.245 0.349 0.549 0.277 0.915-0.263 1.338-0.48 2.677-0.769 3.989-0.149 0.678 0.045 0.919 0.751 0.892 0.318-0.017 0.69-0.027 1.064-0.027s0.746 0.010 1.115 0.029l-0.052-0.002c0.403 0 0.933-0.209 1.141 0.339s-0.231 0.781-0.453 1.107c-1.327 1.642-2.227 2.729-3.135 3.81l0.383-0.468c0.598-0.771-0.727 0.808-2.049 2.39l-2.003 2.464c-0.263 0.317-0.557 0.571-1.005 0.411s-0.353-0.54-0.353-0.924z"></path>
</symbol> -->
  </defs>
</svg>




