<!-- Generated by IcoMoon.io -->
<svg version="1.1" xmlns="http://www.w3.org/2000/svg" width="1195" height="1024" viewBox="0 0 1195 1024">
<title></title>
<g id="icomoon-ignore">
</g>
<path fill="#fff" d="M846.225 241.779c0 133.531-108.248 241.779-241.779 241.779s-241.779-108.248-241.779-241.779c0-133.531 108.248-241.779 241.779-241.779s241.779 108.248 241.779 241.779z"></path>
<path fill="#fff" d="M1189.395 1062.656c0-78.097-15.381-155.428-45.269-227.582-29.886-72.151-73.692-137.711-128.913-192.932-55.223-55.223-120.783-99.029-192.934-128.915s-149.485-45.269-227.582-45.269c-78.095 0-155.428 15.383-227.58 45.269s-137.711 73.692-192.934 128.915c-55.223 55.221-99.028 120.781-128.914 192.932-29.886 72.154-45.269 149.485-45.269 227.582h1189.395z"></path>
</svg>
